<svg xmlns="http://www.w3.org/2000/svg" width="512" height="512" viewBox="0 0 512 512">
  <rect width="512" height="512" rx="96" fill="#1a2744"/>
  <rect x="60" y="60" width="392" height="392" rx="64" fill="#1e3a8a" opacity="0.4"/>
  <!-- CPU chip icon -->
  <rect x="156" y="156" width="200" height="200" rx="24" fill="none" stroke="#3b82f6" stroke-width="16"/>
  <rect x="196" y="196" width="120" height="120" rx="12" fill="#3b82f6" opacity="0.8"/>
  <!-- Pins left -->
  <line x1="120" y1="200" x2="156" y2="200" stroke="#3b82f6" stroke-width="10" stroke-linecap="round"/>
  <line x1="120" y1="240" x2="156" y2="240" stroke="#3b82f6" stroke-width="10" stroke-linecap="round"/>
  <line x1="120" y1="280" x2="156" y2="280" stroke="#3b82f6" stroke-width="10" stroke-linecap="round"/>
  <line x1="120" y1="320" x2="156" y2="320" stroke="#3b82f6" stroke-width="10" stroke-linecap="round"/>
  <!-- Pins right -->
  <line x1="356" y1="200" x2="392" y2="200" stroke="#3b82f6" stroke-width="10" stroke-linecap="round"/>
  <line x1="356" y1="240" x2="392" y2="240" stroke="#3b82f6" stroke-width="10" stroke-linecap="round"/>
  <line x1="356" y1="280" x2="392" y2="280" stroke="#3b82f6" stroke-width="10" stroke-linecap="round"/>
  <line x1="356" y1="320" x2="392" y2="320" stroke="#3b82f6" stroke-width="10" stroke-linecap="round"/>
  <!-- Pins top -->
  <line x1="200" y1="120" x2="200" y2="156" stroke="#3b82f6" stroke-width="10" stroke-linecap="round"/>
  <line x1="240" y1="120" x2="240" y2="156" stroke="#3b82f6" stroke-width="10" stroke-linecap="round"/>
  <line x1="280" y1="120" x2="280" y2="156" stroke="#3b82f6" stroke-width="10" stroke-linecap="round"/>
  <line x1="320" y1="120" x2="320" y2="156" stroke="#3b82f6" stroke-width="10" stroke-linecap="round"/>
  <!-- Pins bottom -->
  <line x1="200" y1="356" x2="200" y2="392" stroke="#3b82f6" stroke-width="10" stroke-linecap="round"/>
  <line x1="240" y1="356" x2="240" y2="392" stroke="#3b82f6" stroke-width="10" stroke-linecap="round"/>
  <line x1="280" y1="356" x2="280" y2="392" stroke="#3b82f6" stroke-width="10" stroke-linecap="round"/>
  <line x1="320" y1="356" x2="320" y2="392" stroke="#3b82f6" stroke-width="10" stroke-linecap="round"/>
</svg>
